<?xml version="1.0" encoding="UTF-8"?>
<svg id="_レイヤー_1" data-name="レイヤー_1" xmlns="http://www.w3.org/2000/svg" version="1.1" viewBox="0 0 1857.06 130.96">
  <!-- Generator: Adobe Illustrator 30.5.1, SVG Export Plug-In . SVG Version: 2.1.4 Build 3)  -->
  <path d="M1390.91.37l27.05-.13v129.99s-25.71.52-25.71.52l-39.74-50.92-39.77,50.82-25.57-.04V.21s27.37-.06,27.37-.06l.19,81.75,34.42-43.71c.71-.61,2.65-2.26,3.39-1.84l4.04,2.28,34.22,43.25.14-81.51Z"/>
  <path d="M972.35,130.76l-20.73-.15-69.27-84.44-.52,84.6-27.72-.21-.06-123.78c0-2.1,2.51-6.53,4.47-6.52l23.33.07,69.53,84.53.17-84.68,27.6.07.03,126.36c-.73,1.66-4.77,4.15-6.83,4.14Z"/>
  <path d="M1642.36,54.69l34.74-.05c3.46,0,6.62-3.02,6.62-6.36v-16.08c0-1.5-.81-4.56-1.92-5.46-1.1-.9-4.31-1.6-6.02-1.6l-52.77.08-.08,105.64-26.87-.39.03-122.46c0-5.22,3.6-8,8.39-7.98l83.62.34c10.31.04,21.99,10.8,22.05,20.71l.22,36.43c.07,12.16-13.14,21.57-24.52,21.86l-13.29.34,40.44,50.41-35.17.67-47.29-57.75,11.81-18.34Z"/>
  <path d="M253.35,130.82l-75.65-.28c-11.61-.04-22.81-11.86-22.83-23.34l-.19-84.44c1.72-11.59,10.4-20.15,21.89-22.69l76.26-.02c10.17,2.62,21.56,11.04,21.61,22.59l.39,85.65c-2.16,11.16-9.95,19.5-21.48,22.53ZM241.1,105.09c3.74-.02,6.7-3.37,6.82-6.51l-.1-66.32c0-3.37-2.92-6.79-6.42-6.78l-52.31.1c-4.66,0-7.53,3.45-7.52,7.96l.15,66.12c0,3.49,5.57,5.68,8.29,5.66l51.08-.24Z"/>
  <path d="M1545.09,130.82l-75.54-.33c-12.37-.05-21.51-11.98-23.13-23.29l.02-84.44c2.14-11.88,11.07-20.96,23.12-22.72h74.93c11.86,2.48,20.62,11.64,22.44,23.69v82.2c-1.39,12.14-9.53,21.44-21.83,24.88ZM1532.83,105.13c3.66-.55,6.73-3.34,6.73-6.52V32.28c0-3.53-2.75-6.73-6.38-6.73l-52.38.04c-4.25,0-7.11,3.94-7.11,8.06v63.59c.01,5.12,3.24,8.11,8.26,8.09l50.88-.2Z"/>
  <path d="M103.75,130.86l-103.75-.08,15.66-25.49,75.14-.05c3.56,0,6.76-3.56,6.77-6.65l.02-13.57c0-3.87-2.82-6.94-6.91-6.95l-62.73-.18c-10.08-.03-21.32-10.26-22.17-20.08-1.04-12.03-.82-23.24-.24-35.08C6.09,11.3,16.11,2.55,26.81,0l99.04.15-14.35,25.43-72.23-.03c-4.28,0-7.01,2.45-7.03,6.84l-.07,13.63c-.01,2.79,2.51,6.16,5.75,6.19l65.02.49c10.51.08,21.37,12.61,21.41,22.52l.13,31.73c.05,11.44-9.44,20.69-20.72,23.91Z"/>
  <path d="M550.05,130.82l-102.81-.14,15.27-25.34,74.77-.21c3.52-.01,6.24-3.32,6.25-6.24l.05-14.14c.01-2.93-2.9-6.76-6.34-6.78l-63.88-.48c-9.56-.07-20-11.62-20.07-20.54l-.25-33.31c-.09-11.83,11.63-23.43,23.97-23.42l95.08.04-14.26,25.33-71.7.03c-3.47,0-6.45,3.41-6.47,6.53l-.1,13.99c-.02,2.68,3.03,6.04,6.12,6.07l63.47.58c11.61.11,21.43,13.87,21.52,24.55l.22,27.47c-.16,12.28-8.42,22.29-20.86,26.03Z"/>
  <path d="M1112.06,78.08l-73.43-.08-.26,22.38c-.02,1.4,2.64,4.17,4.03,4.92l79.3-.06.03,25.59-89.91-.54c-14.29-.09-21.16-15.69-21.05-27.88l.7-81.07c.08-9.15,10.57-20.78,20.14-20.83l89.95-.46-.04,25.55-75.16-.09c-3.97,0-7.93,1.31-7.92,6.08l.06,20.58,80.28.06.12,20.73c.02,2.95-3.32,5.1-6.83,5.1Z"/>
  <path d="M629.28,77.86l-.37,22.11c-.04,2.2,3.46,5.34,5.63,5.34l77.65-.06.16,25.49-89.34-.27c-10.51-.03-20.98-11.67-20.98-21.89l.02-86.1c0-12.73,12.72-22.46,24.58-22.44l85.88.11-.49,25.4-77.48.07c-3.08,0-5.64,3.68-5.6,6.46l.25,20.13,79.79.03c1.11,8.82,1.29,17.05-.87,25.79l-78.83-.17Z"/>
  <path d="M395.17.28l27.31-.14-.23,107.24c-.02,10-10.9,22.42-21.08,22.84-26.05,1.09-50.24.79-76.33.23-11.87-.25-22.86-12.78-22.88-24.51l-.14-105.57,27.8-.35.04,98.51c0,3.84,3.85,6.73,7.43,6.72l51.82-.16c2.75,0,6.27-3.72,6.27-6.51V.28Z"/>
  <polygon points="1801.22 64.38 1857.06 130.31 1820.98 130.57 1775.39 78.46 1768.26 77.81 1768.17 130.76 1740.68 130.82 1740.63 .28 1768.18 .06 1768.22 52.09 1775 52.07 1820.03 .05 1855.76 .49 1801.22 64.38"/>
  <polygon points="1218.07 130.5 1190.39 130.71 1190.33 25.64 1145.45 25.54 1145.54 .13 1262.66 .09 1262.67 25.61 1218.05 25.68 1218.07 130.5"/>
  <polygon points="768.56 130.53 741.15 130.7 741.18 .23 768.54 .17 768.56 130.53"/>
</svg>